<?xml version="1.0" encoding="UTF-8" standalone="no" ?>
<svg
        xmlns:svg="http://www.w3.org/2000/svg"
        xmlns="http://www.w3.org/2000/svg"
        version="1.1"
        width="512"
        height="512"
        viewBox="0 0 512 512">
    <path
            d="M256 64Q204 64 160 90T90 160T64 256T90 352T160 422T256 448T352 422T422 352T448 256Q448 239 445 224Q442 217 434 215Q430 213 427 213H384V192Q384 179 373 173Q368 171 363 171H320V149Q320 136 309 131Q304 128 299 128H277V85Q277 72 267 67Q261 64 256 64V64zM203 128Q216 128 225.5 137.5T235 160T225.5 182.5T202.5 192T180 182.5T171 160T180 137.5T203 128zM139 213Q152 213 161.5 222.5T171 245.5T161.5 268T138.5 277T116 268T107 245.5T116 222.5T139 213zM245 235Q259 235 268 244T277 266.5T268 289.5T245.5 299T222.5 289.5T213 266.5T222.5 244T245 235zM352 277Q365 277 374.5 286.5T384 309.5T374.5 332T352 341V341Q339 341 329.5 332T320 309V309Q320 296 329.5 286.5T352 277zM235 341Q248 341 257.5 350.5T267 373.5T257.5 396T234.5 405T212 396T203 373.5T212 350.5T235 341z"
            id="cookie" />
</svg>