<svg
        xmlns="http://www.w3.org/2000/svg"
        viewBox="0 0 24 24">
    <path d="M 15.828125 2.0292969 C 15.0505 2.0291719 14.273531 2.3119062 13.707031 2.8789062 L 11.5 5.0859375 L 10.707031 4.2929688 L 9.2929688 5.7070312 L 11.085938 7.5 L 9.2929688 9.2929688 L 10.707031 10.707031 L 12.5 8.9140625 L 15.085938 11.5 L 13.292969 13.292969 L 14.707031 14.707031 L 16.5 12.914062 L 18.292969 14.707031 L 19.707031 13.292969 L 18.914062 12.5 L 21.121094 10.292969 C 22.291094 9.1229688 22.291094 7.2207812 21.121094 6.0507812 L 20.242188 5.171875 L 21.707031 3.7070312 L 20.292969 2.2929688 L 18.828125 3.7578125 L 17.949219 2.8789062 C 17.383219 2.3124062 16.60575 2.0294219 15.828125 2.0292969 z M 5.7070312 9.2929688 L 4.2929688 10.707031 L 5.0859375 11.5 L 2.8789062 13.707031 C 1.7089063 14.877031 1.7089063 16.779219 2.8789062 17.949219 L 3.7578125 18.828125 L 2.2929688 20.292969 L 3.7070312 21.707031 L 5.171875 20.242188 L 6.0507812 21.121094 C 6.6167812 21.687094 7.369875 22 8.171875 22 C 8.972875 22 9.7269688 21.688094 10.292969 21.121094 L 12.5 18.914062 L 13.292969 19.707031 L 14.707031 18.292969 L 5.7070312 9.2929688 z" />
</svg>