<?xml version="1.0" encoding="UTF-8" standalone="no" ?>
<svg
        xmlns:svg="http://www.w3.org/2000/svg"
        xmlns="http://www.w3.org/2000/svg"
        version="1.1"
        width="512"
        height="512"
        viewBox="0 0 512 512">
    <path
            d="M252 192L320 259V256Q320 229 301.5 210.5T256 192H252zM161 209L194 242Q192 249 192 256Q192 283 210.5 301.5T256 320Q263 320 270 318L303 351Q280 363 256 363Q227 363 202.5 348.5T163.5 309.5T149 256Q149 232 161 209zM43 91L91 140L101 149Q46 193 21 256Q49 327 113 371.5T256 416Q305 416 349 398L421 469L448 442L70 64zM256 149Q277 149 296.5 157.5T331 181T354.5 215.5T363 255.5T355 295L417 357Q467 316 491 256Q463 185 399 140.5T256 96Q212 96 171 111L217 157Q236 149 256 149z"
            id="eye-off" />
</svg>