<?xml version="1.0" encoding="UTF-8" standalone="no" ?>
<svg
        xmlns:svg="http://www.w3.org/2000/svg"
        xmlns="http://www.w3.org/2000/svg"
        version="1.1"
        width="512"
        height="512"
        viewBox="0 0 512 512">
    <path
            d="M256 192Q229 192 210.5 210.5T192 256T210.5 301.5T256 320T301.5 301.5T320 256T301.5 210.5T256 192zM256 363Q227 363 202.5 348.5T163.5 309.5T149 256Q149 235 157.5 215.5T181 181T215.5 157.5T256 149T296.5 157.5T331 181T354.5 215.5T363 256Q363 285 348.5 309.5T309.5 348.5T256 363zM256 96Q177 96 113 140.5T21 256Q49 327 113 371.5T256 416T399 371.5T491 256Q463 185 399 140.5T256 96z"
            id="eye" />
</svg>