<?xml version="1.0" encoding="UTF-8" standalone="no" ?>
<svg
        xmlns:svg="http://www.w3.org/2000/svg"
        xmlns="http://www.w3.org/2000/svg"
        version="1.1"
        width="512"
        height="512"
        viewBox="0 0 512 512">
    <path
            d="M277 405H299Q308 405 314 411.5T320 427H469V469H320Q320 478 314 484.5T299 491H213Q204 491 198 484.5T192 469H43V427H192Q192 418 198 411.5T213 405H235V363H85Q76 363 70 356.5T64 341V256Q64 247 70 241T85 235H427Q436 235 442 241T448 256V341Q448 350 442 356.5T427 363H277V405zM85 64H427Q436 64 442 70T448 85V171Q448 180 442 186T427 192H85Q76 192 70 186T64 171V85Q64 76 70 70T85 64zM192 149H213V107H192V149zM192 320H213V277H192V320zM107 107V149H149V107H107zM107 277V320H149V277H107z"
            id="server-network" />
</svg>