<?xml version="1.0" encoding="UTF-8" standalone="no" ?>
<svg
        xmlns:svg="http://www.w3.org/2000/svg"
        xmlns="http://www.w3.org/2000/svg"
        version="1.1"
        width="512"
        height="512"
        viewBox="0 0 512 512">
    <path
            d="M160 43Q131 61 113.5 92.5T96 160T113.5 227.5T161 277Q128 277 101 261.5T58.5 219T43 160T58.5 101T101 58.5T160 43zM407 75L437 105L105 437L75 407zM275 127L243 107L213 128L222 92L192 69L229 67L242 31L256 66L293 67L264 91zM205 204L180 188L156 205L163 176L140 159L169 157L179 129L189 156L218 157L196 176zM405 288Q405 320 389.5 347T347 389.5T288 405Q249 405 218 383L383 218Q405 249 405 288zM311 428L371 404L365 475zM404 371L428 312L475 366zM428 265L404 206L475 211zM205 404L265 428L211 475z"
            id="theme-light-dark" />
</svg>